<svg xmlns="http://www.w3.org/2000/svg" viewBox="0 0 640 160" role="img" aria-label="Royal Auto Collision">
  <defs>
    <linearGradient id="g" x1="0" y1="0" x2="1" y2="1">
      <stop offset="0%" stop-color="#dc2626"/>
      <stop offset="100%" stop-color="#ef4444"/>
    </linearGradient>
  </defs>
  <!-- Emblem: crowned shield with spark -->
  <g transform="translate(24,24)">
    <path d="M56 0l12 16 20 4-14 14 3 20-21-9-21 9 3-20-14-14 20-4 12-16z" fill="#f59e0b"/>
    <path d="M8 34v44c0 22 48 38 48 38s48-16 48-38V34l-48-10-48 10z" fill="url(#g)" stroke="#0b0f19" stroke-width="4" />
    <circle cx="56" cy="58" r="12" fill="#fff"/>
    <path d="M56 38v20M56 58l14 10M56 58l-14 10" stroke="#0b0f19" stroke-width="4" stroke-linecap="round"/>
  </g>
  <!-- Wordmark -->
  <g transform="translate(160,98)">
    <text x="0" y="0" font-family="Inter, system-ui, -apple-system, Segoe UI, Roboto, Arial, sans-serif" font-size="54" font-weight="800" fill="#0b0f19" letter-spacing="0.5">
      Royal <tspan fill="url(#g)">Auto</tspan> Collision
    </text>
  </g>
</svg>
